<?xml version="1.0" encoding="utf-8"?>
<!-- Generator: Adobe Illustrator 24.0.1, SVG Export Plug-In . SVG Version: 6.00 Build 0)  -->
<svg version="1.1" id="Layer_1" xmlns="http://www.w3.org/2000/svg" xmlns:xlink="http://www.w3.org/1999/xlink" x="0px" y="0px"
	 viewBox="0 0 507.3 365.2" style="enable-background:new 0 0 507.3 365.2;" xml:space="preserve">
<style type="text/css">
	.st0{fill:#FFFFFF;}
</style>
<title>built-burger</title>
<path class="st0" d="M20.9,306.3c8.1,0,19.6,1.2,19.6,14.7c0,8.4-5.4,11.1-8.6,12.7c4,1.1,10.5,4.2,10.5,13.9
	c0,14-10,16.3-20.8,16.3H1.8c-1.4,0-1.8-0.3-1.8-1.8v-4.5c0-1.5,0.3-1.8,1.8-1.8H6v-41.4H1.8c-1.4,0-1.8-0.2-1.8-1.8V308
	c0-1.5,0.3-1.8,1.8-1.8H20.9z M20,330c5,0,9.1-1.3,9.1-7.9c0-5.3-3.6-7-8.2-7h-3.5V330H20z M20.4,354.9c5.8,0,10.7-1,10.7-8.1
	s-4.9-8-10.5-8h-3.2v16.1L20.4,354.9z"/>
<path class="st0" d="M95.4,344.3c0,12.5-4.4,20.9-20.2,20.9S55,356.8,55,344.3v-30h-4.3c-1.4,0-1.8-0.2-1.8-1.8V308
	c0-1.5,0.3-1.8,1.8-1.8h19.8c1.4,0,1.8,0.2,1.8,1.8v4.5c0,1.5-0.3,1.8-1.8,1.8h-4.2v30c0,6,0.4,11.8,8.9,11.8s8.9-5.8,8.9-11.8v-30
	h-4.2c-1.4,0-1.8-0.2-1.8-1.8V308c0-1.5,0.3-1.8,1.8-1.8h19.8c1.4,0,1.8,0.2,1.8,1.8v4.5c0,1.5-0.3,1.8-1.8,1.8h-4.3L95.4,344.3z"/>
<path class="st0" d="M131.1,362c0,1.5-0.3,1.8-1.8,1.8h-19.9c-1.4,0-1.8-0.2-1.8-1.8v-4.5c0-1.5,0.3-1.8,1.8-1.8h4.3v-41.4h-4.3
	c-1.4,0-1.8-0.2-1.8-1.8V308c0-1.5,0.3-1.8,1.8-1.8h19.9c1.4,0,1.8,0.2,1.8,1.8v4.5c0,1.5-0.3,1.8-1.8,1.8H125v41.4h4.3
	c1.4,0,1.8,0.2,1.8,1.8L131.1,362z"/>
<path class="st0" d="M144.2,314.3H140c-1.4,0-1.8-0.2-1.8-1.8V308c0-1.5,0.3-1.8,1.8-1.8h20.1c1.4,0,1.8,0.2,1.8,1.8v4.5
	c0,1.5-0.3,1.8-1.8,1.8h-4.5v40.4h12.3l1.5-6.5c0.2-1.1,0.3-1.5,1-1.5c0.4,0,0.8,0.1,1.3,0.2l5.5,1.2c1.2,0.2,1.5,0.4,1.5,1.1
	c0,0.4-0.1,0.7-0.2,1.1l-2.7,11.9c-0.2,1.3-0.6,1.5-1.9,1.5H140c-1.4,0-1.8-0.2-1.8-1.8v-4.5c0-1.5,0.3-1.8,1.8-1.8h4.3L144.2,314.3
	z"/>
<path class="st0" d="M208.9,362c0,1.5-0.3,1.8-1.8,1.8h-22.4c-1.4,0-1.8-0.2-1.8-1.8v-4.5c0-1.5,0.3-1.8,1.8-1.8h5.5v-40.4h-6.1v8
	c0,1.2-0.3,1.4-1.4,1.4h-4.9c-1.2,0-1.4-0.2-1.4-1.4v-15.7c0-1.2,0.2-1.4,1.4-1.4h36.3c1.1,0,1.4,0.2,1.4,1.4v15.7
	c0,1.2-0.3,1.4-1.4,1.4h-5c-1.2,0-1.4-0.2-1.4-1.4v-8h-6.1v40.4h5.5c1.4,0,1.8,0.2,1.8,1.8L208.9,362z"/>
<path class="st0" d="M238.6,311.6h-5.3c-0.5,0.1-0.9-0.3-1-0.8c0-0.1,0-0.2,0-0.2v-3.5c-0.1-0.5,0.3-0.9,0.8-1c0.1,0,0.2,0,0.2,0
	h19.4c2.3-0.1,4.6,0.1,6.9,0.5c1.6,0.3,3.1,0.9,4.4,1.7c1.7,1.2,3,2.8,3.9,4.7c1,2.1,1.5,4.5,1.5,6.8c0.1,2.9-0.7,5.8-2.1,8.3
	c-1.5,2.4-3.7,4.3-6.2,5.4c1.2,0.3,2.4,0.8,3.5,1.3c0.9,0.4,1.7,1,2.4,1.7c1.4,1.4,2.6,3,3.3,4.9c2,5.2,1.5,11-1.4,15.8
	c-1.6,2.6-4.1,4.5-7,5.5c-0.6,0.2-1.2,0.4-1.9,0.5c-0.7,0.2-1.4,0.3-2.2,0.3c-0.8,0.1-1.7,0.1-2.8,0.2c-1.1,0-2.3,0-3.8,0h-17.9
	c-0.5,0.1-0.9-0.3-1-0.8c0-0.1,0-0.1,0-0.2v-3.4c-0.1-0.5,0.3-0.9,0.8-1c0.1,0,0.2,0,0.2,0h5.3L238.6,311.6z M245.5,331.6h5.4
	c1,0,1.8,0,2.5,0c0.6,0,1.2-0.1,1.8-0.2c0.5-0.1,1-0.3,1.4-0.5c0.5-0.2,0.9-0.5,1.3-0.8c2.7-1.9,4.1-5,4.1-9.4
	c0-3.2-0.7-5.5-2.1-6.9s-3.9-2-7.3-2h-7L245.5,331.6z M245.5,358.2h7.5c1.5,0,3-0.1,4.5-0.4c1.1-0.3,2.1-0.9,3-1.6
	c2.4-1.8,3.5-4.7,3.5-8.5c0-7-3.8-10.5-11.4-10.5h-7.1V358.2z"/>
<path class="st0" d="M292,348.1c0,4.1,0.8,7,2.5,8.7s4.4,2.6,8.3,2.6s6.7-0.9,8.6-2.7s2.8-4.6,2.8-8.5v-36.4h-5.3
	c-0.5,0.1-0.9-0.3-1-0.8c0-0.1,0-0.2,0-0.2v-3.5c-0.1-0.5,0.3-0.9,0.8-1c0.1,0,0.2,0,0.2,0H326c0.5-0.1,0.9,0.3,1,0.8
	c0,0.1,0,0.2,0,0.2v3.4c0.1,0.5-0.3,0.9-0.8,1c-0.1,0-0.2,0-0.2,0h-5.4v36.7c0.1,2.3-0.3,4.6-1,6.8c-0.7,1.9-1.8,3.6-3.2,5
	c-1.7,1.6-3.7,2.9-5.9,3.6c-2.6,0.8-5.4,1.2-8.2,1.1c-11.5,0-17.3-5.5-17.3-16.6v-36.7h-5.3c-0.5,0.1-0.9-0.3-1-0.8
	c0-0.1,0-0.2,0-0.2v-3.5c-0.1-0.5,0.3-0.9,0.7-1c0.1,0,0.2,0,0.3,0h17.5c0.5-0.1,0.9,0.3,1,0.8c0,0.1,0,0.2,0,0.2v3.4
	c0.1,0.5-0.3,0.9-0.8,1c-0.1,0-0.2,0-0.2,0H292V348.1z"/>
<path class="st0" d="M344.9,337.7v20.6h5.4c0.5-0.1,0.9,0.3,1,0.8c0,0.1,0,0.2,0,0.2v3.4c0.1,0.5-0.3,0.9-0.8,1c-0.1,0-0.1,0-0.2,0
	h-17.5c-0.5,0.1-0.9-0.3-1-0.8c0-0.1,0-0.1,0-0.2v-3.4c-0.1-0.5,0.3-0.9,0.8-1c0.1,0,0.2,0,0.2,0h5.2v-46.7h-5.3
	c-0.5,0.1-0.9-0.3-1-0.8c0-0.1,0-0.2,0-0.2v-3.5c-0.1-0.5,0.3-0.9,0.8-1c0.1,0,0.2,0,0.2,0h19.4c2.1,0,4.3,0.1,6.4,0.4
	c1.5,0.2,2.9,0.7,4.2,1.4c2.1,1.1,3.7,2.8,4.7,4.9c1.1,2.4,1.7,5.1,1.6,7.7c0.1,3.7-0.9,7.3-2.9,10.4c-2,2.9-4.8,5-8.1,6.1
	l11.9,21.2h4.1c0.5-0.1,0.9,0.3,1,0.8c0,0.1,0,0.2,0,0.2v3.4c0.1,0.5-0.3,0.9-0.8,1c-0.1,0-0.1,0-0.2,0h-8.2c-0.7,0-1.3-0.3-1.5-0.9
	l-13.3-25.2L344.9,337.7z M351.5,332.4c1.3,0,2.7-0.1,4-0.4c1-0.3,2-0.8,2.9-1.5c2.5-2,3.7-5.1,3.7-9.4s-1.4-7.1-4.1-8.5
	c-0.8-0.4-1.6-0.6-2.4-0.8c-1.3-0.1-2.6-0.2-3.9-0.2h-6.7v20.7L351.5,332.4z"/>
<path class="st0" d="M414.4,360.3c0,0.5-0.3,1-0.8,1.3c-2,1.1-4.1,2-6.3,2.4c-2.5,0.6-5.1,0.9-7.6,0.9c-6.6,0-11.6-2.5-15.1-7.5
	s-5.2-12.4-5.2-22.2c0-9.7,1.7-17.2,5.2-22.4c3.2-5.1,8.9-8,14.9-7.8c2.3,0,4.6,0.4,6.8,1.1c2.1,0.6,4.2,1.6,6,2.9
	c0.6,0.4,0.9,1,0.8,1.7v9.6c0.1,0.5-0.3,0.9-0.8,1c-0.1,0-0.1,0-0.2,0h-3.8c-0.5,0.1-0.9-0.3-1-0.8c0-0.1,0-0.1,0-0.2v-7.4
	c-1.3-0.7-2.6-1.3-4-1.7c-1.2-0.4-2.5-0.6-3.8-0.5c-1.6,0-3.2,0.3-4.6,1c-1.4,0.6-2.6,1.6-3.6,2.8c-1.7,2.2-2.9,4.8-3.4,7.6
	c-0.8,4-1.1,8.1-1,12.2c0,3.8,0.2,7.6,0.8,11.4c0.4,2.7,1.2,5.4,2.5,7.8c1,1.9,2.5,3.5,4.4,4.5c2.9,1.4,6.2,1.8,9.4,1.1
	c1.2-0.3,2.4-0.8,3.6-1.3v-17.6H401c-0.3,0-0.7,0-1-0.2c-0.2-0.3-0.3-0.7-0.2-1v-3.1c-0.2-0.5,0.1-1,0.5-1.2c0.2-0.1,0.4-0.1,0.6,0
	h18.1c0.5-0.1,0.9,0.3,1,0.8c0,0.1,0,0.2,0,0.2v3.4c0.1,0.5-0.3,0.9-0.7,1c-0.1,0-0.2,0-0.3,0h-4.7V360.3z"/>
<path class="st0" d="M452.1,350.4c-0.1-0.5,0.3-0.9,0.8-1c0.1,0,0.2,0,0.2,0h3.8c0.5-0.1,0.9,0.3,1,0.7c0,0.1,0,0.2,0,0.3v12.2
	c0.1,0.3,0,0.7-0.2,1c-0.3,0.2-0.7,0.3-1,0.2h-32.2c-0.5,0.1-0.9-0.3-1-0.8c0-0.1,0-0.2,0-0.2v-3.4c-0.1-0.5,0.3-0.9,0.7-1
	c0.1,0,0.2,0,0.3,0h5.3v-46.7h-5.3c-0.5,0.1-0.9-0.3-1-0.8c0-0.1,0-0.2,0-0.2v-3.5c-0.1-0.5,0.3-0.9,0.7-1c0.1,0,0.2,0,0.3,0h31.6
	c0.3-0.1,0.7,0,1,0.2c0.2,0.3,0.2,0.7,0.2,1v11.3c0.1,0.5-0.3,0.9-0.8,1c-0.1,0-0.1,0-0.2,0h-3.8c-0.5,0.1-0.9-0.3-1-0.8
	c0-0.1,0-0.2,0-0.2v-6.5h-14.9v18.9h16.5c0.3-0.1,0.7,0,1,0.2c0.2,0.3,0.3,0.7,0.2,1v3.3c0.2,0.5-0.1,1-0.5,1.2
	c-0.2,0.1-0.4,0.1-0.6,0h-16.5v21.1h15.4V350.4z"/>
<path class="st0" d="M477.1,337.7v20.6h5.4c0.5-0.1,0.9,0.3,1,0.8c0,0.1,0,0.2,0,0.2v3.4c0.1,0.5-0.3,0.9-0.8,1c-0.1,0-0.1,0-0.2,0
	h-17.5c-0.5,0.1-0.9-0.3-1-0.8c0-0.1,0-0.1,0-0.2v-3.4c-0.1-0.5,0.3-0.9,0.8-1c0.1,0,0.2,0,0.2,0h5.3v-46.7h-5.3
	c-0.5,0.1-0.9-0.3-1-0.8c0-0.1,0-0.2,0-0.2v-3.5c-0.1-0.5,0.3-0.9,0.8-1c0.1,0,0.2,0,0.2,0h19.4c2.1,0,4.3,0.1,6.4,0.4
	c1.5,0.2,2.9,0.7,4.2,1.4c2.1,1.1,3.7,2.8,4.7,4.9c1.1,2.4,1.7,5.1,1.6,7.7c0.1,3.7-0.9,7.3-2.8,10.4c-2,2.9-4.8,5-8.1,6.1
	l11.9,21.2h4.1c0.5-0.1,0.9,0.3,1,0.8c0,0.1,0,0.2,0,0.2v3.4c0.1,0.5-0.3,0.9-0.8,1c-0.1,0-0.1,0-0.2,0h-8.2c-0.7,0-1.3-0.3-1.5-0.9
	l-13.3-25.2H477.1z M483.6,332.4c1.3,0,2.7-0.1,4-0.4c1-0.3,2-0.8,2.8-1.5c2.5-2,3.7-5.1,3.7-9.4c0-4.3-1.4-7.1-4.1-8.5
	c-0.8-0.4-1.6-0.6-2.4-0.8c-1.3-0.1-2.6-0.2-3.9-0.2h-6.7v20.7L483.6,332.4z"/>
<path class="st0" d="M360.3,181.1h-95.7c-16.3,0-16.4,1-21.5,2.3c-6.1,3-10.6,8.7-14.7,13.7c-4.4,5.5-8.5,10.7-13.2,10.7
	s-9.5-4.1-15.3-8.8c-4.8-3.9-10.2-8.4-17-11.9c-7.7-4.1-16.4-6.2-25.1-6.1h-16.2c-4.9,0-8.9-4.6-8.9-10.2s4-10.2,8.9-10.2H354
	c-4.7-16.4-13.6-31.2-25.8-43.1l-0.6-0.6l-5.7-101.1c0-10-8.6-15.9-19.2-15.9s-19.2,6-19.2,15.8v0.2l-5.8,73.9l-2.4-0.5
	c-5.6-1.2-11.2-1.9-16.9-2.2l-2.2-0.1l1.6-29.3c-16.9,3.9-32.4,12.2-45,24l-2.5,2.3l-6-18.7l0,0l0,0c-20.5,11-36.8,29.1-46.5,50.9
	h9.9c7.3-14.8,18.1-27.6,31.6-37.1l7.2,22.3c9.8-13.6,23.1-24.2,38.5-30.8l3.2-1.4l-1.4,26.2c13.3-0.7,26.6,1.2,39.2,5.6l6.5-85.3
	c0-4.8,4.6-6.8,10.2-6.8s10.2,2,10.2,6.8l5.6,104.1c9.2,8,16.6,17.7,22,28.6l1.5,3.1H141.6c-9.8,0-17.8,8.6-17.8,19.2
	s8,19.2,17.8,19.2h18.6c6.5,0.3,12.9,2,18.6,5.1c5.9,3.1,10.8,7,15.4,10.8c6.8,5.5,13.2,10.8,20.9,10.8c4.1,0,8-1.6,11.9-4.9
	c3-2.8,5.8-5.9,8.3-9.1c3.6-4.5,7.4-9.2,11.7-11.3c1.1-0.5,10.1-1.6,24.2-1.6c32,0,88.7,0.1,89.1,0.1c4.9,0,8.8,4.9,8.8,10.5
	s-4,10.2-8.9,10.2H257.7l-2.2,0.1c-3.1,0.1-6.1,1-8.7,2.7c-2.5,1.6-4.8,3.4-7,5.3c-6.5,5.4-13.9,11.6-26.4,11.6
	c-7.4,0-15-5.2-22.4-10.3c-7-4.8-13.6-9.3-18-9.3H148l0.1,11.6c0,19.6,15.9,35.4,35.4,35.4h137c13.7-0.1,26.2-8,32-20.4H343
	c-5.1,7.5-13.5,12-22.6,12h-137c-15,0-27.1-12.1-27.1-27.1v-2.7h14.6c3.5,0,8.5,3.2,15.1,7.7c8.1,5.6,17.3,11.9,27.5,11.9
	c15.7,0,25.1-7.9,32.1-13.6c4.5-3.7,7.3-6,10-6h104.7c9.8,0,17.8-8.6,17.8-19.2S370.1,181.1,360.3,181.1z"/>
<path class="st0" d="M273.7,114.1h4.1c1.1,0,2.1,0.9,2.1,2.1v4.1c0,1.1-0.9,2.1-2.1,2.1h-4.1c-1.1,0-2.1-0.9-2.1-2.1v-4.1
	C271.6,115,272.6,114.1,273.7,114.1z"/>
<path class="st0" d="M249.9,125.3h4.1c1.1,0,2.1,0.9,2.1,2.1v4.1c0,1.1-0.9,2.1-2.1,2.1h-4.1c-1.1,0-2.1-0.9-2.1-2.1v-4.1
	C247.8,126.3,248.8,125.3,249.9,125.3z"/>
<path class="st0" d="M297.5,125.3h4.1c1.1,0,2.1,0.9,2.1,2.1v4.1c0,1.1-0.9,2.1-2.1,2.1h-4.1c-1.1,0-2.1-0.9-2.1-2.1v-4.1
	C295.4,126.3,296.4,125.3,297.5,125.3z"/>
<path class="st0" d="M202.3,125.3h4.1c1.1,0,2.1,0.9,2.1,2.1v4.1c0,1.1-0.9,2.1-2.1,2.1h-4.1c-1.1,0-2.1-0.9-2.1-2.1v-4.1
	C200.2,126.3,201.2,125.3,202.3,125.3z"/>
<path class="st0" d="M226.1,114.1h4.1c1.1,0,2.1,0.9,2.1,2.1v4.1c0,1.1-0.9,2.1-2.1,2.1h-4.1c-1.1,0-2.1-0.9-2.1-2.1v-4.1
	C224,115,225,114.1,226.1,114.1z"/>
</svg>
